<?xml version="1.0" encoding="UTF-8" standalone="no"?>
<!DOCTYPE svg PUBLIC "-//W3C//DTD SVG 1.1//EN" "http://www.w3.org/Graphics/SVG/1.1/DTD/svg11.dtd">
<svg version="1.1" xmlns="http://www.w3.org/2000/svg" xmlns:xlink="http://www.w3.org/1999/xlink" preserveAspectRatio="xMidYMid meet" viewBox="0 0 640 640" width="48" height="48"><defs><path d="M276.01 103.86C350.74 103.86 361.7 162.36 371.22 168.86C386.95 150.33 405.82 134.72 426.97 122.76C459.81 103.86 492.87 105.75 500.19 103.86C556.24 103.86 572.32 134.69 580.33 138.11C596.39 160.95 604.4 195.23 604.38 240.96C604.38 395.88 604.38 481.96 604.38 499.17C604.38 505.62 605.29 510 607.1 512.35C608.91 514.69 612.83 516.8 618.85 518.49C620.26 518.96 627.31 521.3 640 525.53L640 541.33C564.79 541.33 523 541.33 514.65 541.33C498.32 541.33 493.51 530.26 491.16 529.03C486.38 520.83 483.96 508.53 483.91 492.14C483.91 331.94 483.91 242.95 483.91 225.15C483.91 185.62 476.05 174.56 475.17 168.94C466.43 152.26 448.88 153.91 445.95 152.24C413.41 152.24 383.58 186.97 376.65 190.83C379.22 207.41 380.44 224.17 380.3 240.96C380.3 266.78 380.3 473.35 380.3 499.17C380.3 505.62 381.21 510 383.02 512.35C384.83 514.69 388.75 516.8 394.77 518.49C396.18 518.96 403.21 521.3 415.86 525.53L415.86 541.33C340.63 541.33 298.83 541.33 290.48 541.33C274.15 541.33 269.32 530.26 266.97 529.03C262.18 520.83 259.77 508.53 259.73 492.14C259.73 331.94 259.73 242.95 259.73 225.15C259.73 185.62 251.87 174.56 251 168.94C242.28 152.26 224.69 153.91 221.77 152.24C200.47 152.24 178.57 163.96 156.09 187.38C156.09 374.45 156.09 478.38 156.09 499.17C156.09 505.62 156.98 510.15 158.79 512.78C160.6 515.4 164.31 517.62 169.95 519.37C171.31 519.78 178.14 521.83 190.43 525.53L190.43 541.33L0 541.33L0 525.53C12.65 521.3 19.68 518.96 21.09 518.49C30.12 515.86 31.67 512.96 32.84 512.35C34.65 510 35.56 505.62 35.56 499.17C35.56 465.97 35.56 200.38 35.56 167.19C35.56 157.53 33.11 155.33 32.84 154.01C31.03 151.66 27.11 149.61 21.09 147.85L0 140.83L0 125.03L144.63 98.67L154.87 98.67C154.87 135.56 154.87 156.05 154.87 160.15C170.52 144.07 188.63 130.58 208.52 120.19C229.32 109.25 252.51 103.64 276.01 103.86Z" id="k2Jg2hJmL4"></path></defs><g><g><g><use xlink:href="#k2Jg2hJmL4" opacity="1" fill="#b6b6b6" fill-opacity="1"></use><g><use xlink:href="#k2Jg2hJmL4" opacity="1" fill-opacity="0" stroke="#000000" stroke-width="1" stroke-opacity="0"></use></g></g></g></g></svg>